<?xml version="1.0" standalone="no"?>
<!DOCTYPE svg PUBLIC "-//W3C//DTD SVG 20010904//EN"
 "http://www.w3.org/TR/2001/REC-SVG-20010904/DTD/svg10.dtd">
<svg version="1.0" xmlns="http://www.w3.org/2000/svg"
 width="1424.000000pt" height="1424.000000pt" viewBox="0 0 1424.000000 1424.000000"
 preserveAspectRatio="xMidYMid meet">
<metadata>
Created by potrace 1.14, written by Peter Selinger 2001-2017
</metadata>
<g transform="translate(0.000000,1424.000000) scale(0.100000,-0.100000)"
fill="#000000" stroke="none">
<path d="M1850 10088 l-34 -10 61 -29 c70 -33 103 -72 140 -162 22 -54 26 -78
27 -187 1 -121 -11 -404 -19 -445 -2 -11 -7 -49 -10 -84 -6 -68 -33 -214 -65
-341 -10 -41 -21 -99 -24 -128 -4 -30 -22 -106 -40 -170 -18 -64 -47 -180 -65
-257 -37 -161 -51 -206 -115 -369 -83 -209 -181 -400 -305 -592 -97 -151 -123
-183 -162 -201 -21 -10 -39 -23 -39 -29 0 -23 91 -83 137 -90 101 -15 292 24
333 69 28 30 66 98 102 182 45 107 198 493 218 551 10 28 27 69 39 92 11 23
30 66 42 97 25 67 39 75 174 99 157 29 271 64 366 112 51 25 104 54 118 64 87
60 237 150 252 150 32 0 67 -22 78 -49 15 -40 67 -233 95 -356 62 -275 79
-388 80 -520 1 -122 -1 -134 -27 -190 -49 -105 -87 -152 -140 -175 -71 -31
-66 -34 168 -146 86 -41 111 -48 177 -52 87 -5 194 16 269 54 l45 22 -7 74
c-4 40 -14 109 -23 153 -9 44 -22 118 -30 165 -7 47 -41 193 -74 325 -34 132
-64 258 -68 280 -3 22 -24 101 -45 175 -21 74 -49 184 -64 244 -44 189 -95
336 -170 493 -145 302 -293 549 -443 738 -118 149 -162 192 -259 257 -203 136
-380 199 -556 197 -56 0 -118 -5 -137 -11z m665 -536 c17 -10 43 -39 60 -63
16 -24 32 -46 35 -49 34 -32 206 -357 230 -432 10 -34 8 -44 -26 -123 -45
-106 -101 -160 -222 -217 -106 -50 -189 -64 -262 -42 -46 13 -54 20 -70 57
-15 33 -17 51 -10 87 5 25 16 104 25 175 9 72 20 148 25 170 5 22 12 74 15
115 7 85 34 192 64 263 15 35 29 52 53 62 43 18 47 18 83 -3z"/>
<path d="M5202 9790 c-116 -10 -138 -15 -147 -37 -13 -34 -18 -1227 -6 -1468
29 -575 87 -927 176 -1054 33 -49 168 -165 248 -214 65 -40 94 -42 130 -10 24
23 21 39 -13 63 -37 26 -88 117 -135 240 -20 52 -47 122 -60 155 -42 107 -65
239 -83 471 -10 144 -5 940 8 1047 6 51 15 151 21 222 5 72 16 150 23 175 7
25 14 47 14 50 1 25 15 113 22 145 12 51 19 96 27 168 l6 57 -69 -1 c-38 -1
-111 -5 -162 -9z"/>
<path d="M10241 9117 c-70 -25 -115 -127 -113 -255 2 -95 77 -156 190 -154 83
1 121 15 167 62 l38 39 -6 66 c-8 82 -37 144 -98 207 -42 45 -49 48 -95 47
-27 0 -64 -5 -83 -12z"/>
<path d="M9365 9100 c-41 -13 -124 -88 -170 -154 l-38 -55 22 -318 c11 -175
33 -478 47 -673 14 -195 27 -463 29 -594 l2 -239 27 -14 c15 -8 52 -18 81 -23
52 -8 89 -2 217 36 15 5 15 7 -2 37 -21 37 -95 306 -109 399 -24 158 -30 450
-10 499 6 15 20 31 32 36 13 6 91 8 189 5 l166 -5 7 74 c4 49 1 112 -9 186 -9
62 -13 120 -9 130 5 15 3 15 -18 -4 -26 -23 -127 -64 -217 -87 -76 -20 -116
-4 -131 51 -24 90 -34 468 -19 683 3 32 1 35 -27 37 -16 1 -43 -2 -60 -7z"/>
<path d="M4254 8938 c-38 -31 -114 -123 -142 -175 -15 -28 -20 -307 -9 -543 4
-85 9 -285 12 -445 2 -159 9 -321 15 -360 5 -38 13 -113 16 -165 9 -131 46
-198 138 -251 43 -24 62 -29 121 -28 114 0 200 13 231 34 l29 20 -30 3 c-16 2
-53 10 -82 18 -63 17 -61 11 -107 270 -72 396 -81 526 -42 586 23 35 57 46
195 60 64 6 118 13 120 14 4 4 41 227 38 230 -1 2 -53 -2 -116 -8 -137 -12
-190 -6 -221 27 -19 21 -26 52 -51 237 -20 150 -28 256 -29 361 0 146 0 147
-22 147 -13 0 -41 -15 -64 -32z"/>
<path d="M11640 8922 c-140 -47 -268 -131 -378 -247 -133 -139 -186 -246 -248
-495 -53 -214 -67 -331 -61 -510 6 -175 19 -236 76 -355 96 -201 276 -338 568
-432 113 -36 124 -38 253 -38 112 1 143 4 185 21 111 45 308 193 340 255 8 15
21 61 30 103 16 79 14 97 -23 139 -25 28 -100 57 -148 57 -43 0 -43 0 -42 -34
2 -51 -61 -148 -109 -169 -120 -52 -291 -57 -413 -12 -102 37 -181 78 -207
106 -26 30 -78 124 -103 192 -32 85 -63 317 -57 422 12 178 93 422 172 519 44
54 113 100 235 156 72 34 79 35 195 35 114 0 124 -2 196 -33 42 -18 83 -41 92
-50 22 -26 57 -141 57 -189 0 -42 1 -43 33 -43 40 0 122 50 132 79 3 12 10 21
14 21 16 0 31 53 31 111 0 110 -40 161 -215 275 -153 101 -223 122 -420 130
-109 4 -139 1 -185 -14z"/>
<path d="M7405 8593 c-27 -2 -60 -5 -72 -8 l-22 -5 24 -43 c65 -117 98 -350
135 -947 18 -284 38 -530 44 -537 1 -1 20 2 41 8 39 11 240 4 273 -9 9 -3 13
-1 10 4 -21 34 -38 414 -24 537 3 23 8 68 11 101 7 64 58 206 108 300 54 103
144 176 214 176 45 0 127 -44 160 -86 43 -54 127 -224 153 -309 26 -85 45
-336 44 -572 l-1 -163 27 0 c36 0 180 30 203 41 30 17 25 180 -23 684 -36 382
-54 481 -115 627 -59 141 -113 175 -292 185 -101 6 -104 5 -168 -26 -84 -42
-178 -134 -275 -271 -86 -121 -94 -129 -136 -130 -51 0 -73 34 -84 131 -5 46
-19 134 -30 194 -11 61 -20 113 -20 118 0 7 -81 7 -185 0z"/>
<path d="M5953 8579 c-37 -11 -48 -39 -59 -155 l-7 -72 64 15 c83 20 347 23
407 5 23 -7 58 -28 77 -47 82 -82 103 -318 31 -341 -12 -4 -95 -8 -186 -9 -98
-1 -183 -6 -210 -14 -60 -17 -153 -113 -200 -207 -31 -62 -35 -79 -38 -165 -3
-86 -1 -105 27 -188 34 -102 101 -209 178 -286 129 -129 340 -152 668 -73 115
28 147 32 276 32 l145 0 12 38 c15 47 15 87 1 144 -11 44 -12 45 -43 37 -63
-16 -140 -8 -187 19 -51 30 -94 98 -105 166 -4 23 1 156 11 295 17 241 17 257
1 376 -10 69 -24 146 -32 172 -14 47 -66 124 -141 207 -35 41 -43 44 -108 52
-91 12 -541 11 -582 -1z m468 -859 c112 -21 125 -43 116 -198 -8 -137 -23
-212 -46 -235 -23 -23 -146 -41 -221 -33 -135 15 -206 63 -234 156 -41 138 40
249 219 301 71 21 95 22 166 9z"/>
<path d="M910 8490 c-27 -27 -25 -66 5 -95 l24 -25 414 0 414 0 11 53 c6 28
14 60 17 70 7 16 -18 17 -429 17 -423 0 -437 -1 -456 -20z"/>
<path d="M3473 8498 c2 -7 10 -39 17 -70 l13 -58 260 0 260 0 -7 31 c-3 17 -6
49 -6 70 l0 39 -271 0 c-213 0 -270 -3 -266 -12z"/>
<path d="M4445 8448 c4 -35 9 -66 12 -70 2 -5 119 -8 259 -8 l254 0 0 70 0 70
-266 0 -266 0 7 -62z"/>
<path d="M5380 8440 l0 -70 215 0 c164 0 217 3 219 13 3 6 7 38 10 70 l6 57
-225 0 -225 0 0 -70z"/>
<path d="M6770 8501 c0 -6 5 -13 10 -16 6 -4 25 -31 41 -61 l31 -54 230 0 231
0 -6 33 c-3 18 -12 50 -21 70 l-15 37 -250 0 c-150 0 -251 -4 -251 -9z"/>
<path d="M7684 8478 c4 -18 9 -50 13 -70 l6 -38 62 0 62 0 62 70 63 70 -137 0
-137 0 6 -32z"/>
<path d="M8653 8440 l31 -70 219 0 220 0 -7 31 c-3 17 -6 49 -6 70 l0 39 -244
0 -244 0 31 -70z"/>
<path d="M9534 8494 c3 -9 6 -34 6 -56 0 -39 0 -40 33 -33 61 12 172 56 202
81 l30 24 -139 0 c-122 0 -137 -2 -132 -16z"/>
<path d="M9898 8498 c7 -7 12 -38 12 -70 l0 -58 541 2 540 3 24 60 c14 33 25
63 25 68 0 4 -260 7 -577 7 -449 0 -574 -3 -565 -12z"/>
<path d="M11650 8491 c-41 -22 -130 -99 -130 -112 0 -11 647 -12 653 -1 3 4
-4 35 -14 70 l-20 62 -227 0 c-201 -1 -231 -3 -262 -19z"/>
<path d="M12540 8488 c0 -13 -9 -43 -20 -67 -11 -24 -20 -45 -20 -47 0 -2 25
-4 55 -4 46 0 60 4 80 25 50 49 19 115 -55 115 -35 0 -40 -3 -40 -22z"/>
<path d="M10427 8239 c-64 -20 -153 -26 -206 -14 -31 7 -34 6 -26 -11 45 -107
69 -205 100 -414 10 -69 14 -405 6 -475 -14 -114 -30 -206 -41 -235 -6 -14
-25 -34 -43 -44 l-32 -19 30 -9 c36 -11 211 -14 243 -4 12 4 29 20 37 35 7 15
29 43 48 62 59 59 90 200 82 374 -5 108 -14 235 -20 275 -2 14 -6 52 -10 85
-4 32 -8 66 -10 75 -1 8 -6 42 -9 75 -14 118 -61 267 -84 264 -4 -1 -33 -9
-65 -20z"/>
<path d="M1778 7090 l-37 -70 620 0 620 0 -20 26 c-22 28 -28 78 -11 89 6 3
10 10 10 16 0 5 -221 9 -572 9 l-573 0 -37 -70z"/>
<path d="M3790 7143 c0 -10 3 -42 6 -70 l7 -53 168 0 c93 0 169 2 169 5 0 2
-11 20 -24 40 -14 20 -27 49 -31 65 l-7 30 -144 0 c-130 0 -144 -2 -144 -17z"/>
<path d="M4550 7141 c0 -26 19 -31 110 -31 70 0 81 -3 94 -22 9 -12 13 -31 10
-45 l-6 -23 288 0 288 0 -75 70 -74 69 -317 1 c-306 0 -318 -1 -318 -19z"/>
<path d="M5648 7120 c25 -23 45 -52 48 -70 l7 -30 159 0 159 0 -62 70 -63 70
-146 0 -145 0 43 -40z"/>
<path d="M7224 7143 c-3 -10 -10 -30 -15 -44 -7 -16 -6 -35 0 -52 l11 -27 113
0 113 0 -10 70 -10 70 -98 0 c-85 0 -99 -2 -104 -17z"/>
<path d="M7900 7136 c0 -13 3 -44 6 -70 l7 -46 248 0 c136 0 250 3 252 8 3 4
8 35 12 70 l7 62 -266 0 -266 0 0 -24z"/>
<path d="M8820 7102 c0 -32 -5 -63 -12 -70 -9 -9 31 -12 180 -12 l192 0 0 70
0 70 -180 0 -180 0 0 -58z"/>
<path d="M9640 7145 c0 -11 12 -15 50 -15 28 0 50 -5 50 -10 0 -6 -19 -31 -41
-55 l-42 -45 202 0 c195 0 201 1 201 20 0 12 10 24 23 29 12 5 37 15 55 22 39
14 62 35 62 55 0 12 -44 14 -280 14 -242 0 -280 -2 -280 -15z"/>
<path d="M10655 7140 c-3 -11 -24 -42 -46 -70 l-39 -50 296 0 297 0 -64 69
-64 69 -187 1 c-178 1 -187 0 -193 -19z"/>
<path d="M12461 7128 c-7 -18 -23 -50 -36 -70 l-25 -38 109 0 c94 0 112 3 135
21 17 13 26 30 26 49 0 48 -39 70 -125 70 l-73 0 -11 -32z"/>
<path d="M1107 7127 c-11 -28 -8 -72 5 -85 16 -16 31 -15 21 1 -4 6 -10 32
-13 57 -4 33 -7 40 -13 27z"/>
<path d="M5701 6431 c-22 -6 -22 -8 -7 -20 23 -19 156 -96 250 -145 43 -23 79
-45 79 -51 0 -5 -67 -32 -149 -58 -82 -27 -155 -51 -163 -53 -19 -6 36 -44
109 -74 30 -13 99 -48 152 -79 l98 -56 0 -1075 c-1 -1004 1 -1076 17 -1087 13
-10 123 -13 473 -13 452 0 457 0 476 21 17 19 19 43 24 258 l5 236 54 -100
c139 -256 223 -401 238 -412 13 -10 152 -13 615 -13 574 0 600 1 637 20 22 11
41 29 44 42 7 24 2 31 -154 258 -117 171 -343 510 -388 583 -27 44 -37 69 -29
71 110 27 232 82 270 123 38 40 92 123 110 169 44 111 92 342 108 515 10 113
-2 325 -20 359 -5 10 -10 26 -10 35 0 53 -110 214 -217 316 -82 79 -134 112
-246 159 -194 80 -96 74 -1287 76 -586 1 -1076 -1 -1089 -5z m1659 -775 c32
-14 60 -71 60 -120 0 -43 -4 -53 -39 -87 -42 -43 -31 -41 -216 -41 l-100 0 -3
132 -3 132 143 -4 c79 -3 150 -8 158 -12z"/>
<path d="M12549 6371 c-23 -19 -24 -23 -26 -203 -2 -100 -6 -229 -9 -284 l-6
-101 -269 282 c-148 156 -276 286 -284 289 -11 4 -668 10 -752 6 -7 0 -17 -9
-23 -20 -7 -14 -11 -418 -13 -1309 l-2 -1289 340 -4 c296 -3 342 -2 353 12 10
12 12 62 6 240 -4 124 -4 260 1 304 l7 78 40 -38 c58 -56 319 -364 418 -493
l85 -111 596 0 c329 0 604 -3 613 -6 15 -6 16 113 16 1296 0 873 -3 1308 -10
1321 -26 48 -35 49 -563 49 -472 0 -496 -1 -518 -19z"/>
<path d="M8772 5388 c3 -883 4 -957 21 -1013 21 -69 80 -183 117 -225 8 -10
40 -48 70 -85 62 -76 130 -131 244 -199 88 -52 122 -67 281 -126 234 -87 534
-98 752 -29 255 81 386 176 530 386 13 18 34 49 48 69 13 19 34 61 46 92 22
56 22 66 27 682 6 796 6 869 4 1075 -1 94 1 205 4 248 l6 77 -447 0 -447 0 7
-147 c3 -82 7 -380 7 -663 1 -595 -2 -630 -67 -687 -64 -55 -101 -68 -164 -55
-72 15 -145 83 -156 146 -5 22 -9 347 -10 721 l-1 680 -437 3 -437 2 2 -952z"/>
</g>
</svg>
